<svg width="21" height="21" viewBox="0 0 21 21" fill="none" xmlns="http://www.w3.org/2000/svg">
<path d="M0.646447 19.6464C0.451184 19.8417 0.451184 20.1583 0.646447 20.3536C0.841709 20.5488 1.15829 20.5488 1.35355 20.3536L0.646447 19.6464ZM1.35355 20.3536L4.35355 17.3536L3.64645 16.6464L0.646447 19.6464L1.35355 20.3536Z" fill="#F5F4F4"/>
<path d="M1 20L15 6ZM2.47 10.53L4 9L5.53 10.53C6.1834 11.186 6.55026 12.0741 6.55026 13C6.55026 13.9259 6.1834 14.814 5.53 15.47L4 17L2.47 15.47C1.8166 14.814 1.44974 13.9259 1.44974 13C1.44974 12.0741 1.8166 11.186 2.47 10.53ZM6.47 6.53L8 5L9.53 6.53C10.1834 7.18598 10.5503 8.07413 10.5503 9C10.5503 9.92587 10.1834 10.814 9.53 11.47L8 13L6.47 11.47C5.8166 10.814 5.44974 9.92587 5.44974 9C5.44974 8.07413 5.8166 7.18598 6.47 6.53ZM10.47 2.53L12 1L13.53 2.53C14.1834 3.18598 14.5503 4.07413 14.5503 5C14.5503 5.92587 14.1834 6.81402 13.53 7.47L12 9L10.47 7.47C9.8166 6.81402 9.44974 5.92587 9.44974 5C9.44974 4.07413 9.8166 3.18598 10.47 2.53ZM19 0H21V2C21 3.06087 20.5786 4.07828 19.8284 4.82843C19.0783 5.57857 18.0609 6 17 6H15V4C15 2.93913 15.4214 1.92172 16.1716 1.17157C16.9217 0.421427 17.9391 0 19 0Z" fill="#F5F4F4"/>
<path d="M10.47 15.47L12 17L10.47 18.53C9.81402 19.1834 8.92587 19.5502 8 19.5502C7.07413 19.5502 6.18598 19.1834 5.53 18.53L4 17L5.53 15.47C6.18598 14.8166 7.07413 14.4497 8 14.4497C8.92587 14.4497 9.81402 14.8166 10.47 15.47ZM14.47 11.47L16 13L14.47 14.53C13.814 15.1834 12.9259 15.5502 12 15.5502C11.0741 15.5502 10.186 15.1834 9.53 14.53L8 13L9.53 11.47C10.186 10.8166 11.0741 10.4497 12 10.4497C12.9259 10.4497 13.814 10.8166 14.47 11.47ZM18.47 7.46997L20 8.99997L18.47 10.53C17.814 11.1834 16.9259 11.5502 16 11.5502C15.0741 11.5502 14.186 11.1834 13.53 10.53L12 8.99997L13.53 7.46997C14.186 6.81657 15.0741 6.44971 16 6.44971C16.9259 6.44971 17.814 6.81657 18.47 7.46997Z" fill="#F5F4F4"/>
</svg>
